# Blender v2.93.5 OBJ File: 'aster.blend'
# www.blender.org
mtllib aster.mtl
o aster.001
v 0.000000 14.390911 0.249036
v -0.000000 2.528305 3.101783
v 0.000000 14.393787 -0.503025
v -0.000000 2.476297 -3.134557
v 0.000000 13.610945 0.696987
v 0.000000 12.084414 1.378641
v 0.000000 10.763645 2.721522
v 0.000000 9.763474 3.584310
v 0.000000 8.974981 4.125460
v -0.000000 7.983999 4.634088
v -0.000000 6.754257 5.028023
v -0.000000 5.378279 5.204370
v -0.000000 4.680259 3.946860
v -0.000000 3.525658 3.484294
v -0.000000 3.266340 -3.471891
v -0.000000 4.637319 -3.968075
v -0.000000 5.514038 -5.235930
v -0.000000 6.376022 -5.105675
v -0.000000 7.380651 -4.867571
v 0.000000 8.277485 -4.495099
v 0.000000 9.763474 -3.587935
v 0.000000 11.682587 -1.802902
v 0.000000 12.735455 -0.988059
v 0.000000 13.608345 -0.653150
v 0.000000 11.424030 2.088386
v 0.000000 12.220310 -1.218812
v 0.000000 14.741314 -0.123998
v 0.000000 14.793879 -0.649697
v 0.000000 14.001066 -0.511940
v 0.000000 14.000928 0.523095
v 0.000000 14.912753 -0.404844
v 0.000000 14.918297 -0.608469
v 0.000000 10.263560 3.191221
v 0.000000 10.723030 -2.804670
v -0.000000 4.438791 -4.182049
v -0.000000 4.798556 -5.226722
v -0.000000 3.946121 -4.345235
v -0.000000 4.305885 -5.218887
v -0.000000 3.491811 -4.321954
v -0.000000 3.851576 -5.163456
v -0.000000 3.334152 -4.133631
v -0.000000 3.343839 -5.034282
v -0.000000 3.138100 -3.981661
v -0.000000 2.995287 -4.871504
v -0.000000 2.868805 -4.027807
v -0.000000 2.757502 -4.665453
v -0.000000 3.597707 -5.098869
v -0.000000 3.412982 -4.287837
v -0.000000 2.759132 -4.116035
v -0.000000 2.678325 -4.484450
v -0.000000 2.695085 -4.213164
v -0.000000 2.677201 -4.333752
v -0.000000 4.457374 4.063222
v -0.000000 4.817139 5.195586
v -0.000000 3.964703 4.206681
v -0.000000 4.324468 5.157454
v -0.000000 3.510394 4.249601
v -0.000000 3.870159 5.098325
v -0.000000 3.352735 4.156869
v -0.000000 3.362422 4.968950
v -0.000000 3.156682 3.966414
v -0.000000 3.013870 4.776841
v -0.000000 2.931528 3.979799
v -0.000000 2.776085 4.584073
v -0.000000 3.616290 5.050874
v -0.000000 3.431564 4.229332
v -0.000000 2.777715 4.068038
v -0.000000 2.696908 4.436454
v -0.000000 2.713667 4.165167
v -0.000000 2.670461 4.285756
v -0.000000 4.102959 3.638930
v -0.000000 3.951829 -3.719983
v -0.000000 1.970195 2.828198
v -0.000000 1.918188 -2.874964
v -0.000000 1.944191 -0.023383
v -0.000000 1.601325 2.671619
v -0.000000 1.680084 0.560139
v -0.000000 1.821914 0.393575
v -0.000000 1.785760 2.749908
v -0.000000 1.337376 2.580362
v -0.000000 1.416136 0.798800
v -0.000000 1.032826 2.504174
v -0.000000 1.111586 1.014632
v -0.000000 0.721057 2.525187
v -0.000000 0.772577 1.217256
v -0.000000 0.600862 2.654459
v -0.000000 0.604960 1.298285
v -0.000000 0.462461 3.009601
v -0.000000 0.409352 1.426390
v -0.000000 0.528644 1.347924
v -0.000000 0.552727 2.872337
v -0.000000 0.320802 3.109280
v -0.000000 0.267693 1.526070
v -0.000000 0.183867 3.109280
v -0.000000 0.130758 1.682935
v -0.000000 0.037890 3.010042
v -0.000000 -0.015219 1.964264
v -0.000000 -0.045185 2.811735
v -0.000000 -0.077384 2.341154
v -0.000000 1.546405 -2.696094
v -0.000000 1.666536 -0.686455
v -0.000000 1.842617 -0.428506
v -0.000000 1.711388 -2.750972
v -0.000000 1.375212 -2.638525
v -0.000000 1.453971 -0.885089
v -0.000000 1.070662 -2.611553
v -0.000000 1.092012 -1.129659
v -0.000000 0.758893 -2.647738
v -0.000000 0.810412 -1.243405
v -0.000000 0.612300 -2.761623
v -0.000000 0.642796 -1.330171
v -0.000000 0.451772 -3.128869
v -0.000000 0.384394 -1.488273
v -0.000000 0.520806 -1.388340
v -0.000000 0.528102 -2.986050
v -0.000000 0.358638 -3.189804
v -0.000000 0.282692 -1.578011
v -0.000000 0.180056 -3.202042
v -0.000000 0.134342 -1.752586
v -0.000000 0.035766 -3.079310
v -0.000000 -0.014573 -2.030075
v -0.000000 -0.050519 -2.806617
v -0.000000 -0.079520 -2.336035
vt 0.096131 0.450583
vt 0.083997 0.376940
vt 0.458231 0.153703
vt 0.506456 0.189439
vt 0.644407 0.977764
vt 0.620157 0.960384
vt 0.701482 0.912577
vt 0.706827 0.941243
vt 0.525175 0.892388
vt 0.690871 0.848119
vt 0.459068 0.877613
vt 0.397581 0.860136
vt 0.702849 0.755869
vt 0.686605 0.808910
vt 0.351607 0.846556
vt 0.310252 0.830273
vt 0.742761 0.577141
vt 0.729393 0.662649
vt 0.249791 0.801823
vt 0.745020 0.455515
vt 0.184144 0.760015
vt 0.735830 0.388288
vt 0.116987 0.699761
vt 0.714731 0.319302
vt 0.057790 0.623009
vt 0.692163 0.262723
vt 0.108986 0.536534
vt 0.584764 0.254601
vt 0.107180 0.490854
vt 0.545610 0.222020
vt 0.674697 0.991609
vt 0.720150 0.965240
vt 0.743115 0.984190
vt 0.709559 0.999574
vt 0.745020 0.993148
vt 0.732545 1.000000
vt 0.590661 0.235077
vt 0.666356 0.219902
vt 0.583113 0.199608
vt 0.648495 0.190469
vt 0.565675 0.173033
vt 0.629119 0.165029
vt 0.616264 0.151999
vt 0.560836 0.169483
vt 0.548754 0.170172
vt 0.603409 0.138969
vt 0.532670 0.163713
vt 0.581291 0.123695
vt 0.525949 0.145845
vt 0.560473 0.116628
vt 0.527399 0.136117
vt 0.546763 0.118242
vt 0.530995 0.128827
vt 0.537636 0.123493
vt 0.038468 0.588833
vt 0.023361 0.557787
vt 0.067964 0.502508
vt 0.094018 0.527138
vt 0.010874 0.528311
vt 0.049325 0.476638
vt 0.004765 0.511331
vt 0.000734 0.493133
vt 0.049345 0.463858
vt 0.047762 0.471170
vt 0.000000 0.465335
vt 0.053899 0.445311
vt 0.003219 0.444190
vt 0.045137 0.432211
vt 0.009320 0.434202
vt 0.034384 0.426057
vt 0.017470 0.427284
vt 0.026266 0.425628
vt 0.080798 0.333628
vt 0.251839 0.231419
vt 0.422880 0.129209
vt 0.222380 0.238761
vt 0.079010 0.319743
vt 0.077221 0.305858
vt 0.207329 0.236087
vt 0.073409 0.286720
vt 0.183622 0.228593
vt 0.067255 0.265666
vt 0.159858 0.217845
vt 0.054984 0.247607
vt 0.135675 0.204553
vt 0.042947 0.244922
vt 0.124873 0.197305
vt 0.119186 0.194455
vt 0.028109 0.249709
vt 0.016646 0.249110
vt 0.110244 0.190030
vt 0.005635 0.244085
vt 0.099233 0.185006
vt 0.000802 0.235828
vt 0.084940 0.182285
vt 0.001635 0.223523
vt 0.062824 0.183411
vt 0.010661 0.211514
vt 0.037902 0.192964
vt 0.266244 0.200219
vt 0.276042 0.180720
vt 0.394780 0.105297
vt 0.403723 0.113520
vt 0.280979 0.161001
vt 0.385462 0.096785
vt 0.283662 0.130596
vt 0.373497 0.079088
vt 0.281073 0.109535
vt 0.365146 0.058811
vt 0.280697 0.096352
vt 0.367139 0.045994
vt 0.280119 0.086927
vt 0.281604 0.075205
vt 0.384143 0.023743
vt 0.378001 0.033246
vt 0.283643 0.065950
vt 0.384711 0.015987
vt 0.289285 0.050970
vt 0.379409 0.004660
vt 0.301197 0.032470
vt 0.367021 0.000000
vt 0.317694 0.018136
vt 0.347433 0.003965
vn 1.0000 -0.0000 0.0000
usemtl front
s off
f 14/1/1 2/2/1 4/3/1 15/4/1
f 30/5/1 5/6/1 24/7/1 29/8/1
f 5/6/1 6/9/1 23/10/1 24/7/1
f 25/11/1 7/12/1 22/13/1 26/14/1
f 33/15/1 8/16/1 21/17/1 34/18/1
f 8/16/1 9/19/1 20/20/1 21/17/1
f 9/19/1 10/21/1 19/22/1 20/20/1
f 10/21/1 11/23/1 18/24/1 19/22/1
f 11/23/1 12/25/1 17/26/1 18/24/1
f 12/25/1 13/27/1 16/28/1 17/26/1
f 71/29/1 14/1/1 15/4/1 72/30/1
f 6/9/1 25/11/1 26/14/1 23/10/1
f 1/31/1 3/32/1 28/33/1 27/34/1
f 1/31/1 30/5/1 29/8/1 3/32/1
f 27/34/1 28/33/1 32/35/1 31/36/1
f 7/12/1 33/15/1 34/18/1 22/13/1
f 17/26/1 16/28/1 35/37/1 36/38/1
f 36/38/1 35/37/1 37/39/1 38/40/1
f 38/40/1 37/39/1 39/41/1 40/42/1
f 47/43/1 48/44/1 41/45/1 42/46/1
f 42/46/1 41/45/1 43/47/1 44/48/1
f 44/48/1 43/47/1 45/49/1 46/50/1
f 40/42/1 39/41/1 48/44/1 47/43/1
f 46/50/1 45/49/1 49/51/1 50/52/1
f 50/52/1 49/51/1 51/53/1 52/54/1
f 54/55/1 56/56/1 55/57/1 53/58/1
f 56/56/1 58/59/1 57/60/1 55/57/1
f 65/61/1 60/62/1 59/63/1 66/64/1
f 60/62/1 62/65/1 61/66/1 59/63/1
f 62/65/1 64/67/1 63/68/1 61/66/1
f 58/59/1 65/61/1 66/64/1 57/60/1
f 64/67/1 68/69/1 67/70/1 63/68/1
f 68/69/1 70/71/1 69/72/1 67/70/1
f 12/25/1 54/55/1 53/58/1 13/27/1
f 13/27/1 71/29/1 72/30/1 16/28/1
f 4/3/1 2/2/1 73/73/1 75/74/1 74/75/1
f 78/76/1 79/77/1 76/78/1 77/79/1
f 75/74/1 73/73/1 79/77/1 78/76/1
f 77/79/1 76/78/1 80/80/1 81/81/1
f 81/81/1 80/80/1 82/82/1 83/83/1
f 83/83/1 82/82/1 84/84/1 85/85/1
f 85/85/1 84/84/1 86/86/1 87/87/1
f 90/88/1 91/89/1 88/90/1 89/91/1
f 87/87/1 86/86/1 91/89/1 90/88/1
f 89/91/1 88/90/1 92/92/1 93/93/1
f 93/93/1 92/92/1 94/94/1 95/95/1
f 95/95/1 94/94/1 96/96/1 97/97/1
f 97/97/1 96/96/1 98/98/1 99/99/1
f 102/100/1 101/101/1 100/102/1 103/103/1
f 101/101/1 105/104/1 104/105/1 100/102/1
f 105/104/1 107/106/1 106/107/1 104/105/1
f 107/106/1 109/108/1 108/109/1 106/107/1
f 109/108/1 111/110/1 110/111/1 108/109/1
f 114/112/1 113/113/1 112/114/1 115/115/1
f 111/110/1 114/112/1 115/115/1 110/111/1
f 113/113/1 117/116/1 116/117/1 112/114/1
f 117/116/1 119/118/1 118/119/1 116/117/1
f 119/118/1 121/120/1 120/121/1 118/119/1
f 121/120/1 123/122/1 122/123/1 120/121/1
f 75/74/1 102/100/1 103/103/1 74/75/1
o aster
v -0.010000 14.390911 0.249036
v -0.010000 2.528305 3.101783
v -0.010000 14.393787 -0.503025
v -0.010000 2.476297 -3.134557
v -0.010000 13.610945 0.696987
v -0.010000 12.084414 1.378641
v -0.010000 10.763645 2.721522
v -0.010000 9.763474 3.584310
v -0.010000 8.974981 4.125460
v -0.010000 7.983999 4.634088
v -0.010000 6.754257 5.028023
v -0.010000 5.378279 5.204370
v -0.010000 4.680259 3.946860
v -0.010000 3.525658 3.484294
v -0.010000 3.266340 -3.471891
v -0.010000 4.637319 -3.968075
v -0.010000 5.514038 -5.235930
v -0.010000 6.376022 -5.105675
v -0.010000 7.380651 -4.867571
v -0.010000 8.277485 -4.495099
v -0.010000 9.763474 -3.587935
v -0.010000 11.682587 -1.802902
v -0.010000 12.735455 -0.988059
v -0.010000 13.608345 -0.653150
v -0.010000 11.424030 2.088386
v -0.010000 12.220310 -1.218812
v -0.010000 14.741314 -0.123998
v -0.010000 14.793879 -0.649697
v -0.010000 14.001066 -0.511940
v -0.010000 14.000928 0.523095
v -0.010000 14.912753 -0.404844
v -0.010000 14.918297 -0.608469
v -0.010000 10.263560 3.191221
v -0.010000 10.723030 -2.804670
v -0.010000 4.438791 -4.182049
v -0.010000 4.798556 -5.226722
v -0.010000 3.946121 -4.345235
v -0.010000 4.305885 -5.218887
v -0.010000 3.491811 -4.321954
v -0.010000 3.851576 -5.163456
v -0.010000 3.334152 -4.133631
v -0.010000 3.343839 -5.034282
v -0.010000 3.138100 -3.981661
v -0.010000 2.995287 -4.871504
v -0.010000 2.868805 -4.027807
v -0.010000 2.757502 -4.665453
v -0.010000 3.597707 -5.098869
v -0.010000 3.412982 -4.287837
v -0.010000 2.759132 -4.116035
v -0.010000 2.678325 -4.484450
v -0.010000 2.695085 -4.213164
v -0.010000 2.677201 -4.333752
v -0.010000 4.457374 4.063222
v -0.010000 4.817139 5.195586
v -0.010000 3.964703 4.206681
v -0.010000 4.324468 5.157454
v -0.010000 3.510394 4.249601
v -0.010000 3.870159 5.098325
v -0.010000 3.352735 4.156869
v -0.010000 3.362422 4.968950
v -0.010000 3.156682 3.966414
v -0.010000 3.013870 4.776841
v -0.010000 2.931528 3.979799
v -0.010000 2.776085 4.584073
v -0.010000 3.616290 5.050874
v -0.010000 3.431564 4.229332
v -0.010000 2.777715 4.068038
v -0.010000 2.696908 4.436454
v -0.010000 2.713667 4.165167
v -0.010000 2.670461 4.285756
v -0.010000 4.102959 3.638930
v -0.010000 3.951829 -3.719983
v -0.010000 1.970195 2.828198
v -0.010000 1.918188 -2.874964
v -0.010000 1.944191 -0.023383
v -0.010000 1.601325 2.671619
v -0.010000 1.680084 0.560139
v -0.010000 1.821914 0.393575
v -0.010000 1.785760 2.749908
v -0.010000 1.337376 2.580362
v -0.010000 1.416136 0.798800
v -0.010000 1.032826 2.504174
v -0.010000 1.111586 1.014632
v -0.010000 0.721057 2.525187
v -0.010000 0.772577 1.217256
v -0.010000 0.600862 2.654459
v -0.010000 0.604960 1.298285
v -0.010000 0.462461 3.009601
v -0.010000 0.409352 1.426390
v -0.010000 0.528644 1.347924
v -0.010000 0.552727 2.872337
v -0.010000 0.320802 3.109280
v -0.010000 0.267693 1.526070
v -0.010000 0.183867 3.109280
v -0.010000 0.130758 1.682935
v -0.010000 0.037890 3.010042
v -0.010000 -0.015219 1.964264
v -0.010000 -0.045185 2.811735
v -0.010000 -0.077384 2.341154
v -0.010000 1.546405 -2.696094
v -0.010000 1.666536 -0.686455
v -0.010000 1.842617 -0.428506
v -0.010000 1.711388 -2.750972
v -0.010000 1.375212 -2.638525
v -0.010000 1.453971 -0.885089
v -0.010000 1.070662 -2.611553
v -0.010000 1.092012 -1.129659
v -0.010000 0.758893 -2.647738
v -0.010000 0.810412 -1.243405
v -0.010000 0.612300 -2.761623
v -0.010000 0.642796 -1.330171
v -0.010000 0.451772 -3.128869
v -0.010000 0.384394 -1.488273
v -0.010000 0.520806 -1.388340
v -0.010000 0.528102 -2.986050
v -0.010000 0.358638 -3.189804
v -0.010000 0.282692 -1.578011
v -0.010000 0.180056 -3.202042
v -0.010000 0.134342 -1.752586
v -0.010000 0.035766 -3.079310
v -0.010000 -0.014573 -2.030075
v -0.010000 -0.050519 -2.806617
v -0.010000 -0.079520 -2.336035
vt 0.096131 0.450583
vt 0.083997 0.376940
vt 0.458231 0.153703
vt 0.506456 0.189439
vt 0.644407 0.977764
vt 0.620157 0.960384
vt 0.701482 0.912577
vt 0.706827 0.941243
vt 0.525175 0.892388
vt 0.690871 0.848119
vt 0.459068 0.877613
vt 0.397581 0.860136
vt 0.702849 0.755869
vt 0.686605 0.808910
vt 0.351607 0.846556
vt 0.310252 0.830273
vt 0.742761 0.577141
vt 0.729393 0.662649
vt 0.249791 0.801823
vt 0.745020 0.455515
vt 0.184144 0.760015
vt 0.735830 0.388288
vt 0.116987 0.699761
vt 0.714731 0.319302
vt 0.057790 0.623009
vt 0.692163 0.262723
vt 0.108986 0.536534
vt 0.584764 0.254601
vt 0.107180 0.490854
vt 0.545610 0.222020
vt 0.674697 0.991609
vt 0.720150 0.965240
vt 0.743115 0.984190
vt 0.709559 0.999574
vt 0.745020 0.993148
vt 0.732545 1.000000
vt 0.590661 0.235077
vt 0.666356 0.219902
vt 0.583113 0.199608
vt 0.648495 0.190469
vt 0.565675 0.173033
vt 0.629119 0.165029
vt 0.616264 0.151999
vt 0.560836 0.169483
vt 0.548754 0.170172
vt 0.603409 0.138969
vt 0.532670 0.163713
vt 0.581291 0.123695
vt 0.525949 0.145845
vt 0.560473 0.116628
vt 0.527399 0.136117
vt 0.546763 0.118242
vt 0.530995 0.128827
vt 0.537636 0.123493
vt 0.038468 0.588833
vt 0.023361 0.557787
vt 0.067964 0.502508
vt 0.094018 0.527138
vt 0.010874 0.528311
vt 0.049325 0.476638
vt 0.004765 0.511331
vt 0.000734 0.493133
vt 0.049345 0.463858
vt 0.047762 0.471170
vt 0.000000 0.465335
vt 0.053899 0.445311
vt 0.003219 0.444190
vt 0.045137 0.432211
vt 0.009320 0.434202
vt 0.034384 0.426057
vt 0.017470 0.427284
vt 0.026266 0.425628
vt 0.080798 0.333628
vt 0.251839 0.231419
vt 0.422880 0.129209
vt 0.222380 0.238761
vt 0.079010 0.319743
vt 0.077221 0.305858
vt 0.207329 0.236087
vt 0.073409 0.286720
vt 0.183622 0.228593
vt 0.067255 0.265666
vt 0.159858 0.217845
vt 0.054984 0.247607
vt 0.135675 0.204553
vt 0.042947 0.244922
vt 0.124873 0.197305
vt 0.119186 0.194455
vt 0.028109 0.249709
vt 0.016646 0.249110
vt 0.110244 0.190030
vt 0.005635 0.244085
vt 0.099233 0.185006
vt 0.000802 0.235828
vt 0.084940 0.182285
vt 0.001635 0.223523
vt 0.062824 0.183411
vt 0.010661 0.211514
vt 0.037902 0.192964
vt 0.266244 0.200219
vt 0.276042 0.180720
vt 0.394780 0.105297
vt 0.403723 0.113520
vt 0.280979 0.161001
vt 0.385462 0.096785
vt 0.283662 0.130596
vt 0.373497 0.079088
vt 0.281073 0.109535
vt 0.365146 0.058811
vt 0.280697 0.096352
vt 0.367139 0.045994
vt 0.280119 0.086927
vt 0.281604 0.075205
vt 0.384143 0.023743
vt 0.378001 0.033246
vt 0.283643 0.065950
vt 0.384711 0.015987
vt 0.289285 0.050970
vt 0.379409 0.004660
vt 0.301197 0.032470
vt 0.367021 0.000000
vt 0.317694 0.018136
vt 0.347433 0.003965
vn 1.0000 -0.0000 0.0000
usemtl back
s off
f 137/124/2 125/125/2 127/126/2 138/127/2
f 153/128/2 128/129/2 147/130/2 152/131/2
f 128/129/2 129/132/2 146/133/2 147/130/2
f 148/134/2 130/135/2 145/136/2 149/137/2
f 156/138/2 131/139/2 144/140/2 157/141/2
f 131/139/2 132/142/2 143/143/2 144/140/2
f 132/142/2 133/144/2 142/145/2 143/143/2
f 133/144/2 134/146/2 141/147/2 142/145/2
f 134/146/2 135/148/2 140/149/2 141/147/2
f 135/148/2 136/150/2 139/151/2 140/149/2
f 194/152/2 137/124/2 138/127/2 195/153/2
f 129/132/2 148/134/2 149/137/2 146/133/2
f 124/154/2 126/155/2 151/156/2 150/157/2
f 124/154/2 153/128/2 152/131/2 126/155/2
f 150/157/2 151/156/2 155/158/2 154/159/2
f 130/135/2 156/138/2 157/141/2 145/136/2
f 140/149/2 139/151/2 158/160/2 159/161/2
f 159/161/2 158/160/2 160/162/2 161/163/2
f 161/163/2 160/162/2 162/164/2 163/165/2
f 170/166/2 171/167/2 164/168/2 165/169/2
f 165/169/2 164/168/2 166/170/2 167/171/2
f 167/171/2 166/170/2 168/172/2 169/173/2
f 163/165/2 162/164/2 171/167/2 170/166/2
f 169/173/2 168/172/2 172/174/2 173/175/2
f 173/175/2 172/174/2 174/176/2 175/177/2
f 177/178/2 179/179/2 178/180/2 176/181/2
f 179/179/2 181/182/2 180/183/2 178/180/2
f 188/184/2 183/185/2 182/186/2 189/187/2
f 183/185/2 185/188/2 184/189/2 182/186/2
f 185/188/2 187/190/2 186/191/2 184/189/2
f 181/182/2 188/184/2 189/187/2 180/183/2
f 187/190/2 191/192/2 190/193/2 186/191/2
f 191/192/2 193/194/2 192/195/2 190/193/2
f 135/148/2 177/178/2 176/181/2 136/150/2
f 136/150/2 194/152/2 195/153/2 139/151/2
f 127/126/2 125/125/2 196/196/2 198/197/2 197/198/2
f 201/199/2 202/200/2 199/201/2 200/202/2
f 198/197/2 196/196/2 202/200/2 201/199/2
f 200/202/2 199/201/2 203/203/2 204/204/2
f 204/204/2 203/203/2 205/205/2 206/206/2
f 206/206/2 205/205/2 207/207/2 208/208/2
f 208/208/2 207/207/2 209/209/2 210/210/2
f 213/211/2 214/212/2 211/213/2 212/214/2
f 210/210/2 209/209/2 214/212/2 213/211/2
f 212/214/2 211/213/2 215/215/2 216/216/2
f 216/216/2 215/215/2 217/217/2 218/218/2
f 218/218/2 217/217/2 219/219/2 220/220/2
f 220/220/2 219/219/2 221/221/2 222/222/2
f 225/223/2 224/224/2 223/225/2 226/226/2
f 224/224/2 228/227/2 227/228/2 223/225/2
f 228/227/2 230/229/2 229/230/2 227/228/2
f 230/229/2 232/231/2 231/232/2 229/230/2
f 232/231/2 234/233/2 233/234/2 231/232/2
f 237/235/2 236/236/2 235/237/2 238/238/2
f 234/233/2 237/235/2 238/238/2 233/234/2
f 236/236/2 240/239/2 239/240/2 235/237/2
f 240/239/2 242/241/2 241/242/2 239/240/2
f 242/241/2 244/243/2 243/244/2 241/242/2
f 244/243/2 246/245/2 245/246/2 243/244/2
f 198/197/2 225/223/2 226/226/2 197/198/2
